<?xml version="1.0" encoding="UTF-8"?>
<svg version="1.1" xmlns="http://www.w3.org/2000/svg" width="512" height="512">
<path d="M0 0 C14.05609603 11.30197447 24.97835968 27.59113038 27.30664062 45.73632812 C28.89643927 68.03228479 25.2114961 86.95201412 10.38476562 104.46679688 C-1.18614631 117.1034507 -17.46739251 126.88563175 -34.92626953 127.86108398 C-58.00927147 128.5876621 -76.51882238 123.65495748 -93.69335938 107.73632812 C-94.68335938 106.74632812 -95.67335938 105.75632812 -96.69335938 104.73632812 C-125.73335938 119.25632813 -154.77335937 133.77632812 -184.69335938 148.73632812 C-184.69335938 156.98632812 -184.69335938 165.23632812 -184.69335938 173.73632812 C-186.81897408 188.74848198 -193.78530875 201.40028794 -203.69335938 212.73632812 C-204.6995979 214.06495968 -205.70051703 215.39765645 -206.69335938 216.73632812 C-206.3566925 217.23506439 -206.02002563 217.73380066 -205.67315674 218.24765015 C-202.10228973 223.53773174 -198.53215348 228.82830598 -194.96240234 234.11914062 C-193.63803754 236.08182684 -192.31349923 238.04439599 -190.98876953 240.00683594 C-187.16707157 245.66839606 -183.34978171 251.33288827 -179.53686523 257.00036621 C-177.71642173 259.7021011 -175.88979253 262.39957399 -174.0625 265.09667969 C-172.95486366 266.73943875 -171.84743071 268.38233497 -170.74023438 270.02539062 C-170.22672424 270.77984467 -169.71321411 271.53429871 -169.18414307 272.31161499 C-165.69335938 277.50903613 -165.69335938 277.50903613 -165.69335938 279.73632812 C-164.61030518 279.49619995 -164.61030518 279.49619995 -163.50537109 279.2512207 C-144.59180129 275.78805707 -125.81033702 279.45336061 -109.69335938 289.73632812 C-93.87122278 300.74889479 -83.39550602 316.25981631 -79.1628418 335.09741211 C-75.54999087 355.40490335 -80.37666265 375.0252845 -91.83007812 391.88085938 C-102.45531518 405.52007749 -117.84973014 416.04542663 -135.01757812 419.33789062 C-155.76958004 421.5873106 -175.6677858 419.04893828 -192.49414062 405.87304688 C-200.46303178 399.31450237 -200.46303178 399.31450237 -203.00552368 396.05317974 C-204.66717794 394.4797956 -204.66717794 394.4797956 -207.20932007 394.72638416 C-208.22031769 394.89875945 -209.23131531 395.07113474 -210.27294922 395.24873352 C-211.43389099 395.43813507 -212.59483276 395.62753662 -213.79095459 395.82267761 C-215.06585754 396.04853043 -216.3407605 396.27438324 -217.65429688 396.50708008 C-219.00921442 396.73470503 -220.36438562 396.96082451 -221.7197876 397.18554688 C-225.40419769 397.80074854 -229.08473237 398.43684203 -232.76496124 399.07651544 C-236.6131832 399.74159969 -240.46468982 400.38706437 -244.31591797 401.0344696 C-251.61379902 402.26425601 -258.90868086 403.5109593 -266.20258904 404.76407069 C-276.9100687 406.60281839 -287.62200656 408.41525774 -298.33377075 410.22884655 C-299.91278322 410.49623374 -301.49179325 410.76363531 -303.07080078 411.03105164 C-304.22700015 411.22682786 -304.22700015 411.22682786 -305.40655708 411.42655915 C-309.99519691 412.20411272 -314.5830387 412.98618464 -319.17021179 413.77234423 C-322.02176866 414.26087606 -324.87362451 414.7476481 -327.72551727 415.23421478 C-329.68256464 415.56886706 -331.63917079 415.90609643 -333.59576416 416.24339294 C-335.33717682 416.54018448 -335.33717682 416.54018448 -337.11376953 416.8429718 C-338.12476715 417.01647817 -339.13576477 417.18998453 -340.17739868 417.36874866 C-342.69335938 417.73632812 -342.69335938 417.73632812 -345.69335938 417.73632812 C-345.75523437 418.64382813 -345.81710937 419.55132812 -345.88085938 420.48632812 C-348.00937381 434.61966397 -357.42805726 448.26679442 -368.69335938 456.73632812 C-369.50289063 457.39117187 -370.31242187 458.04601562 -371.14648438 458.72070312 C-388.0041631 471.83223102 -407.16010613 474.95079393 -427.97363281 472.46386719 C-445.97845155 469.39792362 -461.10821389 458.59501423 -472.06835938 444.36132812 C-483.92283142 427.0355613 -487.66933122 407.00933955 -484.03710938 386.37304688 C-479.736413 368.52144943 -468.81242036 352.66088776 -453.43164062 342.60351562 C-437.05131161 332.62980652 -418.4076117 328.85282428 -399.40429688 332.41992188 C-387.27730211 335.44539365 -377.21851213 340.72861813 -367.69335938 348.73632812 C-366.46939453 349.65671875 -366.46939453 349.65671875 -365.22070312 350.59570312 C-355.76953907 358.60070761 -349.98047315 370.02251406 -346.69335938 381.73632812 C-345.45844254 381.49484543 -344.2235257 381.25336273 -342.95118713 381.00456238 C-329.15962719 378.32998361 -315.3312748 375.94834854 -301.47070312 373.66210938 C-299.22339055 373.28934233 -296.97612273 372.91630537 -294.72889709 372.54301453 C-288.88668561 371.57306434 -283.04403582 370.60578474 -277.20123291 369.6394043 C-267.79294406 368.08317743 -258.38509841 366.52429073 -248.97772408 364.96254539 C-245.70518942 364.41990054 -242.43231472 363.87934254 -239.15940857 363.33894348 C-237.16542179 363.00835468 -235.17144828 362.6776859 -233.17749023 362.34692383 C-232.27108795 362.19784073 -231.36468567 362.04875763 -230.43081665 361.89515686 C-229.59742264 361.75652222 -228.76402863 361.61788757 -227.90538025 361.47505188 C-227.18415954 361.3558051 -226.46293882 361.23655832 -225.71986294 361.11369801 C-223.68523647 360.7348155 -221.69530255 360.25945585 -219.69335938 359.73632812 C-219.70906982 359.16825439 -219.72478027 358.60018066 -219.7409668 358.01489258 C-220.31207581 334.17530841 -215.57824483 316.76336619 -199.69335938 298.73632812 C-199.03335937 297.74632812 -198.37335938 296.75632812 -197.69335938 295.73632812 C-198.03002625 295.23759186 -198.36669312 294.73885559 -198.71356201 294.2250061 C-202.28442902 288.93492451 -205.85456527 283.64435027 -209.42431641 278.35351562 C-210.74868121 276.39082941 -212.07321952 274.42826026 -213.39794922 272.46582031 C-217.21964718 266.80426019 -221.03693704 261.13976798 -224.84985352 255.47229004 C-226.67029702 252.77055515 -228.49692622 250.07308226 -230.32421875 247.37597656 C-231.43185509 245.7332175 -232.53928804 244.09032128 -233.64648438 242.44726562 C-234.15999451 241.69281158 -234.67350464 240.93835754 -235.20257568 240.16104126 C-238.69335938 234.96362012 -238.69335938 234.96362012 -238.69335938 232.73632812 C-239.73492187 232.90390625 -240.77648437 233.07148438 -241.84960938 233.24414062 C-261.91519851 236.20405696 -281.59878318 232.93716878 -298.2890625 220.55224609 C-312.84264517 208.94274319 -323.25956892 192.33878851 -325.69335938 173.73632812 C-327.18002755 152.38863495 -323.29560247 133.44533463 -309.38085938 116.73632812 C-297.40231654 103.03264289 -280.50852147 94.29279392 -262.38134766 92.50878906 C-240.79989426 91.09579706 -222.33932173 97.43934871 -205.92382812 111.59960938 C-203.69335938 113.73632812 -203.69335938 113.73632812 -202.69335938 115.73632812 C-197.67199499 114.22206273 -193.1751947 112.10733636 -188.51660156 109.74560547 C-187.7191452 109.34541702 -186.92168884 108.94522858 -186.10006714 108.53291321 C-184.3771633 107.66766922 -182.65518579 106.80057871 -180.93404388 105.93183517 C-178.21290744 104.55847368 -175.48928208 103.19016805 -172.76495361 101.82315063 C-166.98883436 98.92368363 -161.21588314 96.01794531 -155.44335938 93.11132812 C-148.7403483 89.73624876 -142.03607523 86.36372946 -135.32840729 82.99791336 C-132.64004108 81.64722897 -129.95412054 80.29176442 -127.26824951 78.93612671 C-125.62979731 78.11327014 -123.99123331 77.29063615 -122.35253906 76.46826172 C-121.60239532 76.08802353 -120.85225159 75.70778534 -120.07937622 75.31602478 C-114.92104612 72.73632812 -114.92104612 72.73632812 -112.69335938 72.73632812 C-112.85191406 71.929375 -113.01046875 71.12242188 -113.17382812 70.29101562 C-116.07322565 50.45303254 -112.302675 30.59354288 -100.21679688 14.29101562 C-76.36594463 -16.14617288 -31.51921877 -23.52126245 0 0 Z M-69.50585938 33.65429688 C-75.82848297 41.57338293 -79.30002999 50.26127951 -78.47460938 60.43164062 C-76.9862219 70.70723875 -71.9773745 79.53965944 -63.95507812 86.17382812 C-56.13441873 91.61428684 -46.72851153 93.60070726 -37.34570312 92.29492188 C-26.8374859 90.08185109 -18.90909027 84.85897178 -12.76757812 75.93945312 C-7.82314881 67.01823937 -6.07793176 56.87217336 -8.84960938 46.91601562 C-12.75146502 36.83622187 -19.59024855 28.71770577 -29.56835938 24.29882812 C-44.24558764 19.22521836 -58.72215092 22.24308814 -69.50585938 33.65429688 Z M-277.69335938 135.73632812 C-285.03727427 142.31865185 -289.65912364 150.90313295 -290.69335938 160.73632812 C-290.84537553 172.25577452 -287.25910064 181.13492796 -279.33398438 189.46679688 C-271.77817429 195.96076975 -263.02951364 199.11109851 -253.15039062 198.94726562 C-243.04195072 198.07945043 -234.78451446 193.25719891 -227.88085938 185.98632812 C-221.57981514 178.29642263 -219.14414209 169.10986233 -219.87695312 159.27148438 C-221.35008286 149.65817381 -225.98722676 141.19226209 -233.64257812 135.16601562 C-247.80980993 125.28943117 -263.6808091 126.02210616 -277.69335938 135.73632812 Z M-176.72851562 327.20117188 C-182.6185495 335.24403127 -185.40312764 343.27812829 -184.44726562 353.32226562 C-182.68318862 363.46961124 -177.94179297 371.96237983 -169.67382812 378.27929688 C-160.76645071 384.08697508 -151.07355427 385.92700929 -140.63085938 383.73632812 C-131.73157886 381.19697441 -123.74034328 375.56785487 -118.69335938 367.73632812 C-113.46824377 357.94133649 -112.56724499 348.23204397 -115.62304688 337.59179688 C-118.85246015 328.97609942 -124.97444814 321.60888049 -133.25195312 317.45117188 C-149.08284004 310.88829305 -165.45917677 313.55251004 -176.72851562 327.20117188 Z M-441.50585938 379.54882812 C-448.48524161 388.13136312 -450.3226512 397.23419383 -449.50976562 408.21679688 C-447.9085722 417.5433359 -442.26949155 425.11645283 -435.10742188 431.04492188 C-427.21820354 436.572481 -418.204204 438.53857227 -408.68164062 437.36523438 C-398.69704127 435.30694949 -390.70323174 430.30820845 -384.93945312 421.83398438 C-379.35907239 412.44005191 -377.64834195 404.20787798 -379.90429688 393.43945312 C-382.63130345 384.0974306 -388.92878402 375.71665825 -397.34570312 370.80273438 C-413.32221022 363.54551901 -429.54379785 366.82646608 -441.50585938 379.54882812 Z " fill="#e5e7eb" transform="translate(484.693359375,26.263671875)"/>
</svg>
